<?xml version="1.0" encoding="UTF-8" standalone="no"?>
<!-- Created with Inkscape (http://www.inkscape.org/) -->

<svg
   xmlns:dc="http://purl.org/dc/elements/1.1/"
   xmlns:cc="http://creativecommons.org/ns#"
   xmlns:rdf="http://www.w3.org/1999/02/22-rdf-syntax-ns#"
   xmlns:svg="http://www.w3.org/2000/svg"
   xmlns="http://www.w3.org/2000/svg"
   xmlns:sodipodi="http://sodipodi.sourceforge.net/DTD/sodipodi-0.dtd"
   xmlns:inkscape="http://www.inkscape.org/namespaces/inkscape"
   id="svg3562"
   sodipodi:docname="karateguy.svg"
   viewBox="0 0 186.96093 281.26553"
   version="1.1"
   inkscape:version="0.92.1 r15371"
   width="199.425"
   height="300.01657">
  <defs
     id="defs5803" />
  <sodipodi:namedview
     id="base"
     bordercolor="#666666"
     inkscape:pageshadow="2"
     inkscape:guide-bbox="true"
     pagecolor="#ffffff"
     inkscape:window-height="706"
     inkscape:window-maximized="1"
     inkscape:zoom="1"
     inkscape:window-x="-8"
     showgrid="false"
     borderopacity="1.0"
     inkscape:current-layer="g8505"
     inkscape:cx="165.34526"
     inkscape:cy="137.81337"
     showguides="true"
     inkscape:window-y="-8"
     inkscape:window-width="1366"
     inkscape:pageopacity="0.0"
     inkscape:document-units="px"
     fit-margin-top="0"
     fit-margin-left="0"
     fit-margin-right="0"
     fit-margin-bottom="0" />
  <g
     id="layer1"
     inkscape:label="Layer 1"
     inkscape:groupmode="layer"
     transform="translate(-323.21168,-356.54095)">
    <g
       id="g8509">
      <g
         id="g6351"
         transform="translate(-290.62499,-11.25)">
        <g
           transform="translate(276.56249,-8.4374997)"
           id="g8505">
          <g
             id="g6355">
            <path
               id="path8167"
               sodipodi:nodetypes="cssssssssccssssccssssssscsssssssssssscccssssssccssssssssssssssssssssssscssssssssssssssssssss"
               style="fill:#000000;fill-opacity:1"
               d="m 356.49,425.06 c 0.8961,0.17746 2.9488,2.6601 4.5616,5.5169 2.3771,4.2107 2.7272,5.5776 1.8488,7.219 -1.3206,2.4675 0.8119,6.9442 5.7865,12.148 1.8083,1.8915 4.4433,5.6891 5.8557,8.4391 1.4123,2.75 3.3583,6.125 4.3244,7.5 3.756,5.3457 7.0383,12.1 8.3759,17.235 0.7686,2.951 2.2974,6.8452 3.3972,8.6538 2.2597,3.7157 2.0133,10.388 -0.4899,13.27 -0.7966,0.917 -1.7879,5.1645 -2.2173,9.5 0.01,9.8951 -0.995,10.7 -5.194,12.341 -1.2213,0 -1.1198,5.7369 0.115,6.5 1.6708,1.0326 1.1925,7.2122 -0.6118,7.9045 -1.2273,0.47095 -1.4574,1.3911 -0.9644,3.857 0.356,1.7812 0.6623,10.413 0.6813,19.182 0.033,15.304 1.6158,15.889 -0.4107,17.612 -2.4652,3.3969 -0.9877,5.3458 -0.9337,16.737 -0.01,1.8446 1.2182,18.644 0.437,27.442 -0.5094,5.7371 -4.3585,11.042 -4.0658,16.794 0.2581,5.0718 2.3389,10.614 7.2478,10.43 5.1714,-0.19413 11.095,-0.46415 15.203,1.9445 2.42,1.419 9.269,3.7744 12.374,0.70711 2.6197,-2.5875 1.0464,-8.1997 -2.2981,-9.1924 -3.8801,-1.1516 -5.4504,-5.288 -11.314,-11.137 -0.7104,-0.70869 -0.1768,-5.3033 -0.1768,-5.3033 2.6907,1.0786 6.4709,5.0219 6.1872,-7.2478 -0.3403,-14.716 -2.1732,-25.147 -1.0607,-34.648 0.585,-4.9967 -0.541,-10.391 1.4142,-15.026 4.8091,-11.401 12.917,-22.867 24.042,-28.284 2.651,-1.2909 8.8369,-0.35354 8.8369,-0.40864 0,1.0176 1.8624,6.1379 2.4124,6.1379 0.55,0 1,0.9 1,2 0,1.1 0.4327,2 0.9615,2 1.5651,0 3.256,7.8911 3.6382,16.979 0.3116,7.4067 0.6441,8.7004 2.6285,10.228 3.6322,2.7956 6.2945,2.2302 5.9544,-1.2646 -1.0527,-10.816 -6.2068,-27.61 -9.1892,-29.942 -1.176,-0.91978 -2.3617,-4.4693 -2.5309,-7.577 l -0.1676,-3.077 4.8954,0.96795 c 3.4416,0.68049 5.6391,0.6291 7.3996,-0.17304 3.5259,-1.6065 5.8551,-1.4207 7.6333,0.60901 1.5528,1.7723 1.783,2.6265 3.8396,14.245 0.6324,3.5722 2.0325,7.7347 3.1116,9.25 1.7623,2.4749 2.5631,2.7552 7.8734,2.7552 5.8916,0 5.9185,-0.0136 7.9554,-4.0062 1.1241,-2.2034 2.9332,-4.5616 4.0203,-5.2406 2.011,-3.5829 2.3506,-3.5441 4.769,-5.3088 1.3561,-0.25953 0.8504,-1.702 1.4481,-8.9562 0.4074,-4.9435 1.3469,-10.338 2.0879,-11.988 4.0298,-8.973 5.3455,-18.5 2.5549,-18.5 -0.4859,0 -0.8834,-0.45 -0.8834,-1 0,-0.55 0.705,-1 1.5667,-1 0.8617,0 3.0417,-1.125 4.8444,-2.5 1.8027,-1.375 3.5917,-2.5 3.9755,-2.5 0.9895,0 3.2706,-1.8914 7.8393,-6.5 6.0837,-6.1367 7.1047,-9.1386 7.0604,-13.377 -0.017,-1.6457 -0.087,-1.1085 0.049,-1.9818 0.1653,-1.0627 -0.107,-6.8725 -0.9275,-9.5278 -0.643,-2.0809 -0.9154,-4.4417 -2.0446,-5.7058 -0.325,-0.36389 -1.0147,-0.91804 -1.3604,-1.2385 -0.8204,-0.76053 -2.3567,-0.65586 -3.3882,-1.0011 -2.8322,-0.94785 -4.1974,-1.0111 -6.9891,-1.0089 -3.289,0.003 -6.2219,0.60594 -8.5735,1.9793 -4.1417,2.4188 -8.1916,4.7851 -11.491,9.104 -0.9758,1.2775 0.5796,3.4348 -0.5303,4.4194 -1.3003,1.1536 -4.0114,1.2543 -5.2149,0 -3.8162,-3.9774 -4.0609,-15.688 -15.998,-15.169 -3.373,0.14677 -4.6597,-2.5182 -8.0648,-3.4451 -2.5886,-0.70463 -5.6505,0.73798 -8.5998,0.47612 -3.6255,-0.32188 -7.4059,-0.70992 -10.559,-0.6006 -10.57,0.36649 -17.909,12.804 -17.531,12.978 0,0 -8.2285,-11.013 -11.283,-16.867 -1.7364,-3.3274 -2.3608,-7.1824 -4.2426,-10.43 -1.7257,-2.9781 -4.4782,-5.2523 -6.364,-8.1317 -1.1518,-1.7586 -2.0926,-3.6512 -2.9994,-5.5478 -0.3071,-0.64231 -0.9158,-1.7311 -1.6711,-3.6561 -0.7554,-1.925 -1.7393,-3.5 -2.1867,-3.5 -0.4473,0 -0.4116,-0.79427 -0.8133,-1.5398 -0.6921,-1.2844 -4.0064,-8.7862 -4.7233,-9.6212 -1.0368,-1.2076 -4.246,-4.4289 -5.6905,-7.467 -0.2993,-0.62953 -5.8635,-8.8859 -9.693,-12.908 -1.5402,-1.6176 -4.9462,-0.14371 -6.75,-3 -1.826,-2.8914 -5.2331,-4.6749 -8.125,-6.5 -3.6136,-2.2805 -4.737,-5.7945 -6.8922,-7.9134 -2.5453,-2.5024 -4.8573,-3.1992 -7.4399,-2.9161 -4.2085,0.46137 -7.2545,2.311 -6.7045,6.1135 1.4293,9.8818 4.6827,8.2723 7.6616,11.216 3.0222,2.9865 4.0305,4.2152 4.25,11 0.1119,3.4576 -1.3035,7.2436 0.75,9.75 1.3191,1.61 5.4373,-3.8227 5.25,7.25 -0.021,1.2202 0.043,3.2075 1.2403,3.4445 z"
               inkscape:connector-curvature="0" />
            <path
               id="path8325"
               style="fill:#ffffff"
               d="m 387.75,522.74 c 1.6625,7.2878 3.412,-1.6168 4.5,15.25 2.9823,3.6782 3.1659,2.1569 12.5,6.75 0.6514,2.0931 -0.6069,0.98604 0.375,4.75 -5.0231,3.486 -1.5823,-5.5263 -16.625,-7.75 -2.6221,-4.8789 2.8972,-8.2395 -5.5,-14.375 1.725,-1.4082 3.6121,0.69065 4.75,-4.625 z m 102.75,32.5 c -3.8851,-4.5277 -2.3122,-3.3132 -4.75,-7.25 1.5806,-3.588 4.1819,-4.449 4.125,-1 0.401,2.7196 1.512,-0.43365 1.75,6.875 -0.1282,0.57815 -0.5336,1.4063 -1.125,1.375 z m -7.625,-27.5 c -2.0507,6.4245 -1.0764,8.1157 -2.125,14.375 2.0418,-2.8853 1.7494,-6.157 2.125,-14.375 z m 38.875,-53.625 c 0.579,-1.0018 2.4879,3.9068 1.5312,4.9062 -0.8527,0.89245 -0.9793,-1.9913 -3.5,-1.25 -1.7159,-0.0842 -3.0728,1.8072 -5.2812,1.8438 1.7267,-1.3862 3.4547,-2.9698 5,-4 0.8207,-0.70657 1.5681,-1.0573 2.25,-1.5 z m -155.8,-74.14 c 2.9782,-3.9681 -1.1882,-6.9087 -3.7201,-9.1998 -6.0503,-1.7744 -8.9209,-3.2836 -11.91,-9.894 -5.6299,-6.2189 -13.446,-2.475 -9.8319,6.2582 0.2092,0.25078 0.7463,2.1588 9.6621,6.5594 1.9981,0.9862 2.04,5.3958 3.6777,3.7581 0.259,-0.25901 1.8182,0.60859 2.8167,1.712 2.0321,2.2454 7.4012,2.7105 9.3056,0.80613 z m 5.536,6.4987 c -0.3578,2.4115 -0.2577,4.8865 0.2224,5.5 0.4801,0.61354 1.1633,2.332 1.5182,3.8188 0.5979,2.5054 0.37,2.749 -3.1122,3.3279 -6.5984,1.0969 -6.66,1.2387 -2.3399,5.3894 2.3705,2.2776 3.8545,4.5103 3.5408,5.3276 -0.2969,0.77377 -0.055,2.6827 0.5382,4.2422 1.5396,4.0496 3.484,1.7154 3.574,-4.2906 0.039,-2.5848 0.2344,-5.1497 0.4349,-5.6997 0.2005,-0.55 0.01,-5.1706 -0.428,-10.268 -0.591,-6.9121 -0.4758,-9.6494 0.4531,-10.769 1.0083,-1.2149 0.9336,-1.8457 -0.3924,-3.3108 -4.8206,-6.1409 -3.1134,1.7043 -4.0091,6.732 z m 24.973,37.709 c 1.802,1.3176 4.6577,6.554 1.9399,9.0729 v -3e-5 c -1.5586,1.4444 -2.9208,2.6262 -3.0272,2.6262 -0.1064,0 -0.749,-1.2192 -4.8473,-11.337 -3.7989,-10.922 -4.7719,-13.053 -5.5817,-13.364 -0.8097,-0.31072 -1.3597,-1.1335 -1.2221,-1.8283 0.1375,-0.69486 -0.5348,-2.7391 -1.494,-4.5428 -0.9592,-1.8036 -1.4741,-3.7162 -1.1441,-4.25 1.0248,-1.6582 5.4987,-1.0949 6.1902,0.77937 0.3552,0.9625 0.9292,1.975 1.2757,2.25 0.8282,0.65724 7.9106,18.689 7.9106,20.594 z m -13.048,-0.33515 c -0.3696,-0.59792 -1.3242,-1.0871 -2.1214,-1.0871 -1.193,0 -1.2312,0.34942 -0.216,1.975 0.7185,1.1505 1.6041,1.6043 2.1213,1.0871 0.4884,-0.48835 0.5856,-1.3771 0.2161,-1.975 z m -3.7735,6.0982 c -2.2278,-3.4971 -3.3193,-4.3218 -5.7461,-4.3416 -1.5273,-0.0124 -1.1521,0.79714 2,4.3154 4.1875,4.674 6.7183,4.6917 3.7461,0.0262 z m 5.9432,4.6628 c 0.1476,-1.9593 -1.3774,-3.6993 -2.3711,-2.7055 -0.4542,0.45417 1.3248,4.6858 1.9699,4.6858 0.1386,0 0.3191,-0.89114 0.4012,-1.9803 z m 57.276,13.78 c 0,-1.6154 -0.2957,-1.9043 -1.1129,-1.0871 -0.612,0.61207 -0.8105,1.6021 -0.4409,2.2 1.0343,1.6737 1.5538,1.3016 1.5538,-1.1129 z m -6,5.9534 c 0,-0.49116 -0.675,-1.152 -1.5,-1.4686 -1.5243,-0.58492 -2.048,0.4803 -0.8333,1.695 0.9557,0.9557 2.3333,0.82206 2.3333,-0.22634 z m 11.707,2.869 c 0,-0.20765 -0.675,-0.93775 -1.5,-1.6224 -1.2285,-1.0196 -1.5,-0.95124 -1.5,0.37756 0,0.89234 0.675,1.6224 1.5,1.6224 0.825,0 1.5,-0.1699 1.5,-0.37756 z m -30.136,7.5062 c -0.014,-0.6944 -0.5359,-2.1544 -3.9326,-11 -1.2178,-3.1715 -5.0376,-15.354 -7.704,-16.924 -3.3806,-1.9898 -8.3184,9.1625 -5.8786,12.649 0.095,0.13559 -0.247,6.8798 1.3956,6.9266 3.8403,0.10918 7.1347,-1.245 7.1347,1.1571 0,1.0675 0.6615,1.941 1.47,1.941 0.8086,0 2.4682,1.35 3.6881,3 2.1073,2.8502 3.8596,3.8805 3.8268,2.25 z m 78.932,6.8077 c -0.34,-0.55 -1.0681,-1 -1.6181,-1 -0.55,0 -0.7219,0.45 -0.3819,1 0.3399,0.55 1.068,1 1.618,1 0.55,0 0.7219,-0.45 0.382,-1 z m -46.328,0.77156 c 0.1959,-1.0279 -0.7591,-2.6579 -2.2398,-3.8226 -1.4198,-1.1168 -2.5814,-2.8491 -2.5814,-3.8496 0,-1.1063 -0.9796,-2.0649 -2.5,-2.4465 -1.375,-0.34511 -2.5,-1.0689 -2.5,-1.6084 0,-0.53952 -0.6269,-0.98095 -1.3931,-0.98095 -0.7661,0 -1.6491,-0.66741 -1.9621,-1.4831 -0.3185,-0.8301 -1.2344,-1.2279 -2.08,-0.90336 -1.3478,0.51719 -1.3477,0.97044 9e-4,4.1981 0.8315,1.9901 1.8751,3.8591 2.3191,4.1534 0.444,0.29428 1.1172,1.8009 1.496,3.348 1.1612,4.7419 10.647,7.5569 11.44,3.395 z m 60.651,0.0368 c 0.2395,-1.2437 -0.6002,-2.1506 -2.7385,-2.9578 -1.6962,-0.64024 -3.0839,-1.535 -3.0839,-1.9885 0,-1.2243 -4.2448,-5.3623 -6.1991,-6.0433 -1.2786,-0.44549 -1.5503,-0.17152 -1.098,1.1071 0.8994,2.5423 3.4299,5.1991 4.952,5.1991 0.7398,0 1.3451,0.75207 1.3451,1.6713 0,4.2529 6.0676,6.9317 6.8224,3.0121 z m -10.036,2.4406 c -0.914,-1.6334 -1.0607,-1.6108 -2.0956,0.32296 -0.844,1.577 -0.8128,2.1893 0.1292,2.5349 1.935,0.7099 3.0534,-0.91554 1.9664,-2.8579 z m -88.896,1.2063 c 1.7082,-1.5957 3.1058,-3.2028 3.1058,-3.5714 0,-1.4828 -3.0669,-3.5907 -6.1098,-4.1993 -2.7105,-0.5421 -3.1262,-0.38531 -2.6017,0.98137 0.3433,0.8946 0.1755,1.9038 -0.3728,2.2427 -1.0655,0.65851 -0.3195,4.1372 1.3291,6.1979 1.2958,1.6196 1.0573,1.7043 4.6494,-1.6512 z m 74.88,-0.51153 c -1.0337,-0.5112 -0.4816,-11.205 -0.4816,-11.205 -0.1356,0.16172 -0.8322,10.268 -2.2295,12.12 0.8477,1.644 -2.4844,10.171 -2.3115,14.221 0.179,0.88663 6.3286,-14.49 5.0226,-15.135 z m -58.24,3.4556 c -0.5281,-8.237 -3.0054,-11.642 -4.1838,-5.75 -0.33,1.65 -0.9937,3 -1.475,3 -1.6071,0 -0.9009,1.8832 1.6705,4.4546 3.534,3.534 4.3031,3.2053 3.9883,-1.7046 z m -5.5338,5.309 c 0,-1.3573 -1.7645,-2.249 -2.4037,-1.2148 -0.5977,0.96702 0.2683,2.1558 1.5704,2.1558 0.4583,0 0.8333,-0.42344 0.8333,-0.94098 z m 78.03,3.2632 c 3.3871,-2.2649 7.9726,-6.5593 7.9726,-7.4663 0,-0.41004 -0.5787,-0.33431 -1.7181,-0.69594 -1.0792,-0.34251 -1.9919,-2.3144 -3.0765,-1.6104 -1.4007,0.90909 -2.1447,2.8016 -2.1447,4.3436 0,1.9811 -2.5479,3.7212 -3.5607,2.0824 -0.8942,-1.4468 -4.0665,-1.2274 -5.3949,0.37325 -3.2124,3.8708 3.0599,6.2249 7.9223,2.9734 z m -87.217,1.0409 c 0.3471,-3.5916 -1.1729,-4.307 -2.7782,-1.3076 -1.6082,3.005 -1.2782,5.2584 0.7148,4.8809 1.1526,-0.21833 1.857,-1.4383 2.0634,-3.5733 z m 40.821,2.6114 c 0.074,-0.77765 0.1865,-1.9407 0.25,-2.5844 0.063,-0.6438 1.4653,-1.4671 3.1153,-1.8295 1.65,-0.3624 3,-1.0732 3,-1.5795 0,-1.9288 1.6598,-0.80437 2.7006,1.8295 l 1.0866,2.75 0.1064,-3.595 c 0.1481,-5.0028 -2.4046,-7.1643 -7.5091,-6.3583 -2.6128,0.41255 -4.862,0.10308 -6.8702,-0.94528 -2.5602,-1.3365 -3.1853,-1.359 -4.3867,-0.15758 -0.8325,0.83246 -1.1165,2.1427 -0.6998,3.2286 0.3857,1.0052 0.5598,1.9717 0.3868,2.1479 -0.173,0.17619 0.4227,0.73294 1.3238,1.2372 0.9011,0.50429 1.9493,2.1556 2.3293,3.6696 1.0278,4.0954 4.8319,5.7053 5.167,2.1867 z m 15.482,4.6023 c 0.3198,-0.83319 1.8789,-2.9039 3.4648,-4.6017 1.586,-1.6977 2.6162,-3.5194 2.2894,-4.0481 -0.3268,-0.52874 0.2374,-1.8802 1.2538,-3.0033 1.0164,-1.1231 1.7484,-2.3322 1.6267,-2.687 -0.1216,-0.35475 0.263,-2.4433 0.8548,-4.6411 1.9801,-7.3533 2.1073,-7.9927 2.0802,-10.453 -0.017,-1.5032 -1.2256,-3.4349 -3.1294,-5 -1.7063,-1.4027 -3.0983,-3.3594 -3.0934,-4.3482 0.01,-2.0484 -4.5983,-6.7022 -6.637,-6.7022 -0.9506,0 -12.978,-5.632 -14.082,-2.4478 -1.1816,3.4096 2.776,1.2096 3.4907,7.7303 0.3503,3.1961 0.8404,8.3262 3.4429,10.149 3.2346,2.2656 4.4643,1.9537 5.6444,-1.4316 0.5752,-1.65 1.3238,-3 1.6636,-3 1.5819,0 4.4863,2.2094 4.4863,3.4127 0,0.7383 0.6127,1.8509 1.3616,2.4724 3.5544,2.9499 2.3563,15.614 -1.8039,19.067 -0.8567,0.71106 -1.5577,1.8801 -1.5577,2.5978 0,0.71774 -1.1283,2.1924 -2.5072,3.2771 -1.5941,1.2539 -2.2835,2.555 -1.893,3.5726 0.7751,2.0199 2.2857,2.0623 3.0442,0.0855 v 5e-5 z m -47.855,9.3374 c 2.6958,-2.475 5.8377,-4.5 6.9821,-4.5 1.1443,0 2.9542,-0.66069 4.0218,-1.4682 1.8385,-1.3906 1.7724,-1.4699 -1.2499,-1.5 -1.755,-0.0175 -3.4691,0.4182 -3.809,0.9682 -0.3399,0.55 -1.7066,1 -3.0372,1 -2.2796,0 -2.3958,-0.2774 -2.0148,-4.8104 0.5231,-6.2224 -0.5991,-8.2396 -2.82,-5.069 -0.8954,1.2784 -1.628,2.651 -1.628,3.0503 0,0.39929 -1.0831,1.8947 -2.4069,3.3231 -1.4371,1.5506 -2.3007,3.5652 -2.1433,4.9995 0.1451,1.3213 -0.3468,2.6366 -1.093,2.923 -3.0377,1.1657 -0.4091,5.0662 3.72,5.52 0.3172,0.0349 2.7824,-1.9616 5.4782,-4.4366 z m 69.707,8.3964 c 0.3594,-1.5125 1.2329,-3.425 1.9412,-4.25 0.7082,-0.825 1.6224,-2.85 2.0315,-4.5 0.6738,-2.7178 0.5871,-2.8709 -0.9221,-1.6276 -1.33,1.0958 -1.966,1.1233 -3.1548,0.1367 -0.819,-0.67967 -1.2616,-1.6037 -0.9837,-2.0534 0.2779,-0.44968 0.1137,-1.0596 -0.3648,-1.3553 -2.3223,-1.4353 -3.4597,9.2336 -1.6151,15.15 0.6812,2.1847 2.391,1.3487 3.0678,-1.5 z m -49.926,2.8686 c 1.4144,-1.1428 1.712,-8.3615 0.3788,-9.1855 -0.4792,-0.29615 -0.718,-1.8548 -0.5306,-3.4638 0.2206,-1.8948 -0.177,-3.124 -1.1288,-3.4892 -0.9404,-0.36084 -1.4714,0.0549 -1.475,1.1548 -0.012,3.6345 -2.191,9.3278 -4.5411,11.864 -1.3493,1.4559 -2.4533,3.1558 -2.4533,3.7776 0,1.3722 7.897,0.83977 9.75,-0.65737 z m -21.191,2.7539 c 1.6801,-1.2819 1.7394,-1.6159 0.4411,-2.4847 -1.6664,-1.115 -4.7184,-1.4194 -3.6645,-0.36547 0.3679,0.36787 -0.077,1.4929 -0.9883,2.5 -1.5528,1.7158 -1.5335,1.8312 0.3067,1.8312 1.0801,0 2.8373,-0.66645 3.905,-1.481 z m -29.145,15.067 c 0,-0.55 -1.2375,-0.99311 -2.75,-0.98469 -2.1429,0.0119 -2.4189,0.22931 -1.25,0.98469 1.9565,1.2644 4,1.2644 4,0 z m 14.336,2.9448 c -0.6202,-0.77117 -1.4499,-0.91653 -2.1325,-0.37359 -0.6145,0.48881 -2.0173,0.52599 -3.1173,0.0826 -3.232,-1.3027 -3.4579,-1.0934 -1.9469,1.8033 0.789,1.5125 1.4396,3.65 1.4458,4.75 0.01,1.7073 0.5056,1.4878 3.3887,-1.5 2.4509,-2.5399 3.0989,-3.8463 2.3622,-4.7623 z m -14.043,19.417 c 0,-1.2898 -0.9334,-3.1897 -2.0741,-4.2221 -1.32,-1.1946 -1.9158,-2.7053 -1.6387,-4.155 0.2487,-1.3011 -0.057,-2.2779 -0.7131,-2.2779 -0.6317,0 -1.2829,1.0125 -1.4471,2.25 -0.2753,2.0738 -0.2859,3.254 -0.071,7.9392 0.067,1.4593 0.9198,1.8986 5.194,2.6746 0.4125,0.0749 0.75,-0.91908 0.75,-2.2088 z m 0.6918,17.654 c 0.015,-2.1333 -1.6161,-4.011 -2.6157,-3.0113 -0.2739,0.27387 -0.1855,2.1634 0.1964,4.199 0.7338,3.9118 2.3893,3.099 2.4193,-1.1877 z m -2.7987,14.53 c 0.9417,-3.4107 0.056,-8.7768 -1.1294,-6.8461 -0.9911,1.6136 -1.2537,10.421 -0.3107,10.421 0.2491,0 0.8972,-1.6087 1.4401,-3.5749 z m 9.108,-7.4086 c 1.1191,-10.614 0.6105,-14.741 -1.5494,-12.571 -1.0608,1.0656 -1.996,18.217 -1.2135,22.257 l 0.5182,2.6759 0.7724,-2.8621 c 0.4248,-1.5742 1.0874,-5.8492 1.4723,-9.5 z m -4.3313,28.297 c -0.7546,-1.1585 -1.2539,-2.8939 -1.1094,-3.8564 0.1444,-0.9625 -0.1035,-1.75 -0.5511,-1.75 -0.4475,0 -1.2843,-1.35 -1.8595,-3 -1.1612,-3.3312 -2.6839,-4.1506 -1.8603,-1.001 0.2875,1.0995 0.093,2.2645 -0.4319,2.589 -0.5805,0.35873 -0.4957,1.1431 0.2163,2.001 0.644,0.77603 0.7784,1.4179 0.2985,1.4263 -0.4798,0.008 -0.41,0.34592 0.1552,0.75 0.5652,0.40408 1.8898,2.6889 2.9437,5.0773 1.7683,4.0078 1.9798,4.1702 2.7433,2.1064 0.5427,-1.4671 0.3553,-2.9608 -0.5448,-4.3426 z m 11.33,21.854 c 0,-0.23002 0.2731,-1.13 0.607,-2 0.3855,-1.0046 0.065,-1.5818 -0.8776,-1.5818 -0.8165,0 -2.0447,-0.675 -2.7294,-1.5 -0.6847,-0.825 -2.299,-1.5 -3.5873,-1.5 -1.2883,0 -2.8006,-0.7875 -3.3606,-1.75 -2.6809,-4.6072 -3.9387,-5.589 -5.4999,-4.2933 -1.1522,0.95621 -2.2623,0.9914 -4.6805,0.14839 -5.2932,-1.8452 -5.8717,-1.5228 -5.8717,3.2724 0,2.4076 0.567,4.8481 1.2599,5.4232 0.6929,0.5751 4.078,1.3645 7.5224,1.7542 3.4443,0.38968 6.5039,1.0992 6.7991,1.5768 0.5246,0.84888 10.419,1.2763 10.419,0.45009 z"
               inkscape:connector-curvature="0" />
          </g>
        </g>
      </g>
    </g>
  </g>
  <metadata
     id="metadata5800">
    <rdf:RDF>
      <cc:Work>
        <dc:format>image/svg+xml</dc:format>
        <dc:type
           rdf:resource="http://purl.org/dc/dcmitype/StillImage" />
        <cc:license
           rdf:resource="http://creativecommons.org/publicdomain/zero/1.0/" />
        <dc:publisher>
          <cc:Agent
             rdf:about="http://openclipart.org/">
            <dc:title>Openclipart</dc:title>
          </cc:Agent>
        </dc:publisher>
        <dc:title>Budokan Karate-do Logo</dc:title>
        <dc:date>2010-07-30T11:19:43</dc:date>
        <dc:description>Budokan Karate-do Logo, now in SVG!\nAlthough not originally by me, I recreated the logo into an SVG format.\nI did that for my club's T-shirt design, &amp; I like scalable graphics.</dc:description>
        <dc:source>https://openclipart.org/detail/75463/budokan-karate-do-logo-by-zanlii</dc:source>
        <dc:creator>
          <cc:Agent>
            <dc:title>ZanLii</dc:title>
          </cc:Agent>
        </dc:creator>
        <dc:subject>
          <rdf:Bag>
            <rdf:li>budokan</rdf:li>
            <rdf:li>empty</rdf:li>
            <rdf:li>fighting</rdf:li>
            <rdf:li>hand</rdf:li>
            <rdf:li>karate</rdf:li>
            <rdf:li>karate-do</rdf:li>
            <rdf:li>logo</rdf:li>
            <rdf:li>martial</rdf:li>
            <rdf:li>martial arts</rdf:li>
          </rdf:Bag>
        </dc:subject>
      </cc:Work>
      <cc:License
         rdf:about="http://creativecommons.org/publicdomain/zero/1.0/">
        <cc:permits
           rdf:resource="http://creativecommons.org/ns#Reproduction" />
        <cc:permits
           rdf:resource="http://creativecommons.org/ns#Distribution" />
        <cc:permits
           rdf:resource="http://creativecommons.org/ns#DerivativeWorks" />
      </cc:License>
    </rdf:RDF>
  </metadata>
</svg>
